<svg width="24" height="27" viewBox="0 0 24 27" fill="none" xmlns="http://www.w3.org/2000/svg">
<path fill-rule="evenodd" clip-rule="evenodd" d="M12 10.0588C13.787 10.0588 15.2353 11.5071 15.2353 13.2941C15.2353 15.0812 13.787 16.5294 12 16.5294C10.213 16.5294 8.76469 15.0812 8.76469 13.2941C8.76469 11.5071 10.213 10.0588 12 10.0588Z" stroke="#878D98" stroke-width="2" stroke-linecap="round" stroke-linejoin="round"/>
<path fill-rule="evenodd" clip-rule="evenodd" d="M22.5704 7.14738C21.6858 5.60446 19.7275 5.07652 18.1969 5.9675C16.8656 6.74088 15.2017 5.7732 15.2017 4.22517C15.2017 2.44449 13.7676 1 11.9997 1C10.2318 1 8.79766 2.44449 8.79766 4.22517C8.79766 5.7732 7.13382 6.74088 5.80376 5.9675C4.27191 5.07652 2.31362 5.60446 1.42903 7.14738C0.545714 8.69029 1.06987 10.6627 2.60172 11.5524C3.93178 12.3271 3.93178 14.2612 2.60172 15.0358C1.06987 15.9268 0.545714 17.8992 1.42903 19.4409C2.31362 20.9838 4.27191 21.5117 5.80249 20.622H5.80376C7.13382 19.8474 8.79766 20.815 8.79766 22.3631C8.79766 24.1437 10.2318 25.5882 11.9997 25.5882C13.7676 25.5882 15.2017 24.1437 15.2017 22.3631C15.2017 20.815 16.8656 19.8474 18.1969 20.622C19.7275 21.5117 21.6858 20.9838 22.5704 19.4409C23.4549 17.8992 22.9295 15.9268 21.3989 15.0358H21.3977C20.0676 14.2612 20.0676 12.3271 21.3989 11.5524C22.9295 10.6627 23.4549 8.69029 22.5704 7.14738Z" stroke="#878D98" stroke-width="2" stroke-linecap="round" stroke-linejoin="round"/>
</svg>
